<svg width="24" height="24" viewBox="0 0 24 24" fill="none" xmlns="http://www.w3.org/2000/svg">
<path fill-rule="evenodd" clip-rule="evenodd" d="M7.01033 4.00008C8.33248 4.00231 9.48925 4.43114 10.41 4.89829C10.8731 5.13327 11.288 5.38402 11.6389 5.6032C11.7433 5.66846 11.8388 5.72875 11.9271 5.78447C11.952 5.80017 11.9763 5.8155 12 5.83047C12.0237 5.8155 12.048 5.80017 12.0729 5.78447C12.1612 5.72875 12.2567 5.66846 12.3611 5.6032C12.712 5.38402 13.1269 5.13327 13.59 4.89829C14.5111 4.43098 15.6683 4.00201 16.991 4.00008C18.5469 3.97357 20.0507 4.56179 21.1757 5.63729C22.303 6.71503 22.9586 8.19469 22.9997 9.75377C22.9999 9.76254 23 9.77131 23 9.78008C23 12.0684 22.2027 15.2639 21.0386 17.8792C20.4541 19.1925 19.7508 20.42 18.9607 21.3369C18.1991 22.2207 17.1952 23.0001 16 23.0001C15.1996 23.0001 14.4299 22.6866 13.8492 22.4501C13.8048 22.432 13.7614 22.4143 13.7193 22.3973C13.049 22.1266 12.5305 21.9401 12 21.9401C11.4695 21.9401 10.951 22.1266 10.2807 22.3973C10.2386 22.4143 10.1953 22.432 10.1508 22.4501C9.57011 22.6866 8.80036 23.0001 8 23.0001C6.80476 23.0001 5.80092 22.2207 5.03934 21.3369C4.24921 20.42 3.54595 19.1925 2.96141 17.8792C1.79734 15.2639 1 12.0684 1 9.78008L1.00029 9.7558C1.03819 8.19514 1.69308 6.7131 2.8215 5.63433C3.94743 4.55794 5.45323 3.97058 7.01033 4.00008ZM6.9793 5.99986C5.94759 5.9785 4.94947 6.3669 4.20356 7.07999C3.46049 7.79036 3.02806 8.76526 3.00001 9.79255C3.00302 11.7243 3.70499 14.6314 4.78859 17.0659C5.32905 18.2802 5.93829 19.3164 6.55441 20.0313C7.19908 20.7794 7.69524 21.0001 8 21.0001C8.38843 21.0001 8.81233 20.8334 9.53182 20.5428C10.174 20.2835 11.0305 19.9401 12 19.9401C12.9695 19.9401 13.826 20.2835 14.4682 20.5428C15.1877 20.8334 15.6116 21.0001 16 21.0001C16.3048 21.0001 16.8009 20.7794 17.4456 20.0313C18.0617 19.3164 18.6709 18.2802 19.2114 17.0659C20.2948 14.6319 20.9967 11.7254 21 9.79361C20.9696 8.76683 20.5364 7.79303 19.7936 7.08295C19.0478 6.36993 18.0503 5.98063 17.0187 5.9999L17 6.00008C16.1065 6.00008 15.2669 6.29022 14.495 6.68186C14.1106 6.87688 13.7542 7.09113 13.4207 7.29945C13.3431 7.34798 13.2638 7.39802 13.1843 7.44822C12.9422 7.60112 12.6978 7.75544 12.4886 7.87258C12.185 8.04257 11.815 8.04257 11.5114 7.87258C11.3022 7.75544 11.0578 7.60112 10.8157 7.44822C10.7362 7.39802 10.657 7.34798 10.5793 7.29945C10.2458 7.09113 9.88942 6.87688 9.50503 6.68186C8.73315 6.29022 7.89355 6.00008 7 6.00008L6.9793 5.99986Z" fill="#E07B67"/>
<path fill-rule="evenodd" clip-rule="evenodd" d="M9.10579 1.55301C9.35278 1.05903 9.95345 0.858803 10.4474 1.10579C11.939 1.8516 13.0002 3.8295 13.0002 7.00022C13.0002 7.5525 12.5525 8.00022 12.0002 8.00022C11.4479 8.00022 11.0002 7.5525 11.0002 7.00022C11.0002 4.17094 10.0614 3.14884 9.55301 2.89465C9.05903 2.64766 8.8588 2.04698 9.10579 1.55301Z" fill="#E07B67"/>
</svg>
