<svg width="24" height="24" viewBox="0 0 24 24" fill="none" xmlns="http://www.w3.org/2000/svg">
<path d="M6.8112 13.5909L7.9346 14.7089C8.32608 15.0984 8.95924 15.0969 9.34881 14.7054C9.73837 14.3139 9.73683 13.6808 9.34535 13.2912L7.81679 11.7701L6.8112 13.5909Z" fill="#8CAD51"/>
<path fill-rule="evenodd" clip-rule="evenodd" d="M11.8243 6.6543C11.1019 6.65373 10.3865 6.79545 9.71893 7.07136C9.05133 7.34728 8.44406 7.75254 7.93287 8.26293C7.11151 9.08428 6.29956 10.3415 5.55804 11.6873C4.80606 13.052 4.08586 14.5839 3.46237 16.0109C2.83791 17.4401 2.30501 18.7768 1.92841 19.7554C1.73997 20.2451 1.59031 20.6461 1.48753 20.9253C1.43613 21.0649 1.39643 21.1742 1.36944 21.2489L1.33861 21.3346L1.33057 21.3571L1.32768 21.3652L2.26997 21.7L2.60495 22.6423L2.6126 22.6395L2.6351 22.6315L2.72089 22.6007C2.79568 22.5737 2.90502 22.534 3.04477 22.4826C3.32423 22.3799 3.72553 22.2303 4.21561 22.0419C5.19502 21.6655 6.53254 21.1329 7.96235 20.5091C9.38996 19.8863 10.9221 19.167 12.2864 18.4165C13.6311 17.6767 14.8873 16.8667 15.7065 16.0477C15.7865 15.9678 15.864 15.8856 15.9387 15.8011C15.9765 15.7728 16.0127 15.7415 16.0471 15.7071C16.1337 15.6205 16.2011 15.522 16.2493 15.4169C16.5113 15.061 16.7301 14.6741 16.9003 14.2641C17.1773 13.5969 17.3201 12.8817 17.3207 12.1594C17.3213 11.437 17.1796 10.7216 16.9036 10.054C16.6277 9.38639 16.223 8.77967 15.7126 8.26848C15.2022 7.75729 14.5962 7.35163 13.929 7.07467C13.2618 6.79771 12.5467 6.65487 11.8243 6.6543ZM7.16259 18.676C5.99023 19.1874 4.87891 19.6371 3.9839 19.9868C4.33362 19.0928 4.78338 17.9828 5.29508 16.8117C5.76168 15.7437 6.27661 14.6322 6.8112 13.5909L7.81679 11.7701C8.35789 10.8705 8.87808 10.1463 9.3467 9.67752C9.67199 9.35279 10.0581 9.09529 10.4828 8.91972C10.9077 8.74413 11.363 8.65394 11.8227 8.6543C12.2824 8.65466 12.7376 8.74557 13.1622 8.92183C13.5868 9.09809 13.9725 9.35626 14.2973 9.68158C14.6221 10.0069 14.8797 10.393 15.0553 10.8179C15.2309 11.2428 15.3211 11.6981 15.3207 12.1578C15.3204 12.5664 15.2485 12.9715 15.1088 13.3546L13.5871 11.8329C13.1966 11.4424 12.5634 11.4424 12.1729 11.8329C11.7823 12.2235 11.7823 12.8566 12.1729 13.2471L13.908 14.9823C13.2829 15.5046 12.3888 16.0775 11.3223 16.6642C10.0316 17.3743 8.55999 18.0663 7.16259 18.676Z" fill="#8CAD51"/>
<path d="M2.60495 22.6423C2.60495 22.6423 2.60419 22.6425 2.26997 21.7C1.32758 21.3655 1.32768 21.3652 1.32768 21.3652C1.19866 21.7287 1.29007 22.1343 1.56275 22.407C1.83544 22.6798 2.24144 22.7712 2.60495 22.6423Z" fill="#8CAD51"/>
<path fill-rule="evenodd" clip-rule="evenodd" d="M15.5368 7.19857C16.2309 6.68057 17.3329 6 18.4999 6C19.9021 6 20.9963 6.64581 21.7015 7.22982C22.0585 7.52552 22.334 7.81987 22.5217 8.0417C22.616 8.15322 22.6895 8.24808 22.7414 8.31792C22.7673 8.35289 22.788 8.38174 22.8032 8.40344L22.822 8.43054L22.8283 8.43987L22.8307 8.44344L22.8317 8.44494C22.8319 8.44526 22.8326 8.44626 21.9999 9C22.8326 9.55374 22.8324 9.55405 22.8321 9.55437L22.8307 9.55656L22.8283 9.56013L22.822 9.56946L22.8032 9.59656C22.788 9.61826 22.7673 9.64711 22.7414 9.68208C22.6895 9.75192 22.616 9.84678 22.5217 9.9583C22.334 10.1801 22.0585 10.4745 21.7015 10.7702C20.9963 11.3542 19.9021 12 18.4999 12C17.0977 12 16.0035 11.3542 15.2983 10.7702C14.9412 10.4745 14.6657 10.1801 14.4781 9.9583C14.3838 9.84678 14.3102 9.75192 14.2584 9.68208C14.2324 9.64711 14.2118 9.61826 14.1966 9.59656L14.1778 9.56946L14.1715 9.56013L14.1691 9.55656L14.1681 9.55506C14.1679 9.55474 14.1672 9.55374 14.9999 9C14.2676 8.31899 14.2678 8.31882 14.2679 8.31865L14.2691 8.31736L14.2713 8.31499L14.2778 8.30811L14.2988 8.28601C14.3163 8.26771 14.3409 8.24238 14.3718 8.21103C14.4338 8.1484 14.5219 8.06134 14.6322 7.95796C14.8516 7.75228 15.1643 7.47654 15.5368 7.19857ZM14.9999 9L14.2679 8.31865C13.9528 8.65745 13.911 9.16848 14.1672 9.55374L14.9999 9ZM16.3921 9.0706C16.4489 9.12313 16.5096 9.17652 16.574 9.22982C17.0763 9.64581 17.7321 10 18.4999 10C19.2677 10 19.9235 9.64581 20.4258 9.22982C20.5193 9.15243 20.6049 9.07485 20.6824 9C20.6049 8.92515 20.5193 8.84757 20.4258 8.77018C19.9235 8.35419 19.2677 8 18.4999 8C18.0269 8 17.3788 8.31943 16.733 8.80143C16.6115 8.89208 16.4972 8.9831 16.3921 9.0706ZM21.9999 9L22.8321 9.55437C23.0552 9.21892 23.0557 8.78172 22.8326 8.44626L21.9999 9Z" fill="#8CAD51"/>
<path fill-rule="evenodd" clip-rule="evenodd" d="M15.5537 1.16731L15 2L14.4463 1.16731C14.7817 0.94423 15.2183 0.94423 15.5537 1.16731ZM15 9C14.4463 9.83269 14.4459 9.83248 14.4456 9.83227L14.4434 9.83081L14.4399 9.82841L14.4305 9.82208L14.4034 9.80332C14.3817 9.78811 14.3529 9.76746 14.3179 9.74149C14.2481 9.68963 14.1532 9.61611 14.0417 9.52179C13.8199 9.33416 13.5255 9.05864 13.2298 8.70158C12.6458 7.99639 12 6.9022 12 5.5C12 4.0978 12.6458 3.00361 13.2298 2.29842C13.5255 1.94136 13.8199 1.66584 14.0417 1.47821C14.1532 1.38389 14.2481 1.31037 14.3179 1.25851C14.3529 1.23254 14.3817 1.2119 14.4034 1.19668L14.4305 1.17792L14.4399 1.17159L14.4434 1.16919L14.4449 1.16819C14.4453 1.16797 14.4463 1.16731 15 2C15.5537 1.16731 15.5534 1.1671 15.5537 1.16731L15.5551 1.16819L15.5566 1.16919L15.5601 1.17159L15.5695 1.17792L15.5966 1.19668C15.6183 1.2119 15.6471 1.23254 15.6821 1.25851C15.7519 1.31037 15.8468 1.38389 15.9583 1.47821C16.1801 1.66584 16.4745 1.94136 16.7702 2.29842C17.3542 3.00361 18 4.0978 18 5.5C18 6.6761 17.3208 7.77726 16.8004 8.47202C16.5218 8.84387 16.2455 9.15518 16.0394 9.37335C15.9357 9.48302 15.8484 9.57063 15.7856 9.63216C15.7542 9.66297 15.7287 9.68734 15.7103 9.70478L15.6881 9.72571L15.6811 9.73218L15.6787 9.7344L15.6778 9.73525C15.6776 9.73541 15.6771 9.73593 15 9ZM15 9L14.4456 9.83227C14.8292 10.0873 15.338 10.0478 15.6771 9.73593L15 9ZM14.9319 7.61052C15.019 7.50654 15.1095 7.39334 15.1996 7.27298C15.6792 6.63274 16 5.9839 16 5.5C16 4.7322 15.6458 4.07639 15.2298 3.57408C15.1524 3.48063 15.0749 3.39495 15 3.31751C14.9251 3.39495 14.8476 3.48063 14.7702 3.57408C14.3542 4.07639 14 4.7322 14 5.5C14 6.2678 14.3542 6.92361 14.7702 7.42592C14.8243 7.49131 14.8786 7.5529 14.9319 7.61052Z" fill="#8CAD51"/>
</svg>
