<svg width="24" height="24" viewBox="0 0 24 24" fill="none" xmlns="http://www.w3.org/2000/svg">
<path fill-rule="evenodd" clip-rule="evenodd" d="M7 2C7 1.44772 7.44772 1 8 1H16C16.5523 1 17 1.44772 17 2C17 2.55228 16.5523 3 16 3H8C7.44772 3 7 2.55228 7 2Z" fill="#7B94CB"/>
<path fill-rule="evenodd" clip-rule="evenodd" d="M9 1C9.55228 1 10 1.44772 10 2V4.789C9.99997 5.77621 9.70771 6.74134 9.16005 7.5627C9.16003 7.56273 9.16007 7.56267 9.16005 7.5627L8.50405 8.5467C8.17529 9.03974 7.99987 9.61918 8 10.2118V20C8 20.2652 8.10536 20.5196 8.29289 20.7071C8.48043 20.8946 8.73478 21 9 21H15C15.2652 21 15.5196 20.8946 15.7071 20.7071C15.8946 20.5196 16 20.2652 16 20V10.211C16 10.211 16 10.211 16 10.211C16 9.61869 15.8246 9.0396 15.496 8.54678L14.84 7.56278C14.84 7.56275 14.84 7.5628 14.84 7.56278C14.2921 6.74112 13.9998 5.77555 14 4.788C14 4.78793 14 4.78807 14 4.788V2C14 1.44772 14.4477 1 15 1C15.5523 1 16 1.44772 16 2V4.788C15.9999 5.3806 16.1752 5.96018 16.504 6.45322L17.16 7.43722C17.7077 8.2586 18 9.22374 18 10.211V20C18 20.7957 17.6839 21.5587 17.1213 22.1213C16.5587 22.6839 15.7957 23 15 23H9C8.20435 23 7.44129 22.6839 6.87868 22.1213C6.31607 21.5587 6 20.7957 6 20V10.2122C6 10.2121 6 10.2123 6 10.2122C5.99982 9.22467 6.29209 8.25896 6.83995 7.4373C6.83993 7.43733 6.83997 7.43727 6.83995 7.4373L7.49595 6.4533C7.82456 5.96048 7.99998 5.38133 8 4.789C8 4.78899 8 4.78901 8 4.789V2C8 1.44772 8.44772 1 9 1Z" fill="#7B94CB"/>
<path fill-rule="evenodd" clip-rule="evenodd" d="M9.49977 15.4976C8.774 15.4976 8.05549 15.6419 7.38605 15.9223C6.87663 16.1356 6.29073 15.8956 6.07739 15.3862C5.86405 14.8768 6.10408 14.2909 6.61349 14.0775C7.5276 13.6947 8.50874 13.4976 9.49977 13.4976C10.4908 13.4976 11.4719 13.6947 12.3861 14.0775L12.3862 14.0776C13.0555 14.358 13.774 14.5024 14.4998 14.5024C15.2255 14.5024 15.944 14.358 16.6134 14.0776C17.1228 13.8642 17.7087 14.1041 17.9221 14.6135C18.1355 15.1229 17.8956 15.7088 17.3862 15.9222C16.4721 16.3052 15.4909 16.5024 14.4998 16.5024C13.5087 16.5024 12.5276 16.3052 11.6135 15.9223M9.49977 15.4976C10.2255 15.4976 10.944 15.6419 11.6134 15.9222L9.49977 15.4976Z" fill="#7B94CB"/>
</svg>
